GIL08_slow4_ik
nRows=3
nColumns=375

# SIMM Motion File Header:
name GIL08_slow4_ik
datacolumns 375
datarows 3
otherdata 1
range 0.54167000 0.55833000
endheader
time	pelvis_tx	pelvis_ty	pelvis_tz	pelvis_tilt	pelvis_list	pelvis_rotation	hip_flexion_r	hip_adduction_r	hip_rotation_r	knee_angle_r	ankle_angle_r	hip_flexion_l	hip_adduction_l	hip_rotation_l	knee_angle_l	ankle_angle_l	lumbar_extension	lumbar_bending	lumbar_rotation	subtalar_angle_r	mtp_angle_r	subtalar_angle_l	mtp_angle_l	asis_r_px	asis_r_py	asis_r_pz	asis_l_px	asis_l_py	asis_l_pz	midasis_px	midasis_py	midasis_pz	psis_r_px	psis_r_py	psis_r_pz	psis_l_px	psis_l_py	psis_l_pz	hip_r_px	hip_r_py	hip_r_pz	hip_l_px	hip_l_py	hip_l_pz	midhip_px	midhip_py	midhip_pz	epicondLat_r_px	epicondLat_r_py	epicondLat_r_pz	epicondMed_r_px	epicondMed_r_py	epicondMed_r_pz	thighwand_r_px	thighwand_r_py	thighwand_r_pz	upperleg1_r_px	upperleg1_r_py	upperleg1_r_pz	upperleg2_r_px	upperleg2_r_py	upperleg2_r_pz	malleolusLat_r_px	malleolusLat_r_py	malleolusLat_r_pz	malleolusMedv_r_px	malleolusMedv_r_py	malleolusMedv_r_pz	shankwand_r_px	shankwand_r_py	shankwand_r_pz	lowerleg1_r_px	lowerleg1_r_py	lowerleg1_r_pz	knee_r_px	knee_r_py	knee_r_pz	ankle_r_px	ankle_r_py	ankle_r_pz	toe_r_px	toe_r_py	toe_r_pz	epicondLat_l_px	epicondLat_l_py	epicondLat_l_pz	epicondMed_l_px	epicondMed_l_py	epicondMed_l_pz	thighwand_l_px	thighwand_l_py	thighwand_l_pz	upperleg1_l_px	upperleg1_l_py	upperleg1_l_pz	upperleg2_l_px	upperleg2_l_py	upperleg2_l_pz	malleolusLat_l_px	malleolusLat_l_py	malleolusLat_l_pz	malleolusMedv_l_px	malleolusMedv_l_py	malleolusMedv_l_pz	shankwand_l_px	shankwand_l_py	shankwand_l_pz	lowerleg1_l_px	lowerleg1_l_py	lowerleg1_l_pz	knee_l_px	knee_l_py	knee_l_pz	ankle_l_px	ankle_l_py	ankle_l_pz	toe_l_px	toe_l_py	toe_l_pz	subclavicle_r_px	subclavicle_r_py	subclavicle_r_pz	subclavicle_l_px	subclavicle_l_py	subclavicle_l_pz	neck_px	neck_py	neck_pz	sternalnotch_px	sternalnotch_py	sternalnotch_pz	xyphoidprocess_px	xyphoidprocess_py	xyphoidprocess_pz	midhip_tx	midhip_ty	midhip_tz	hip_r_tx	hip_r_ty	hip_r_tz	hip_l_tx	hip_l_ty	hip_l_tz	knee_r_tx	knee_r_ty	knee_r_tz	knee_l_tx	knee_l_ty	knee_l_tz	ankle_r_tx	ankle_r_ty	ankle_r_tz	ankle_l_tx	ankle_l_ty	ankle_l_tz	midasis_tx	midasis_ty	midasis_tz	asis_r_tx	asis_r_ty	asis_r_tz	asis_l_tx	asis_l_ty	asis_l_tz	psis_r_tx	psis_r_ty	psis_r_tz	psis_l_tx	psis_l_ty	psis_l_tz	epicondLat_r_tx	epicondLat_r_ty	epicondLat_r_tz	epicondLat_l_tx	epicondLat_l_ty	epicondLat_l_tz	epicondMed_r_tx	epicondMed_r_ty	epicondMed_r_tz	epicondMed_l_tx	epicondMed_l_ty	epicondMed_l_tz	malleolusLat_r_tx	malleolusLat_r_ty	malleolusLat_r_tz	malleolusLat_l_tx	malleolusLat_l_ty	malleolusLat_l_tz	malleolusMedv_r_tx	malleolusMedv_r_ty	malleolusMedv_r_tz	malleolusMedv_l_tx	malleolusMedv_l_ty	malleolusMedv_l_tz	neck_tx	neck_ty	neck_tz	subclavicle_r_tx	subclavicle_r_ty	subclavicle_r_tz	subclavicle_l_tx	subclavicle_l_ty	subclavicle_l_tz	sternalnotch_tx	sternalnotch_ty	sternalnotch_tz	xyphoidprocess_tx	xyphoidprocess_ty	xyphoidprocess_tz	thighwand_r_tx	thighwand_r_ty	thighwand_r_tz	thighwand_l_tx	thighwand_l_ty	thighwand_l_tz	upperleg1_r_tx	upperleg1_r_ty	upperleg1_r_tz	upperleg1_l_tx	upperleg1_l_ty	upperleg1_l_tz	upperleg2_r_tx	upperleg2_r_ty	upperleg2_r_tz	upperleg2_l_tx	upperleg2_l_ty	upperleg2_l_tz	shankwand_r_tx	shankwand_r_ty	shankwand_r_tz	shankwand_l_tx	shankwand_l_ty	shankwand_l_tz	lowerleg1_r_tx	lowerleg1_r_ty	lowerleg1_r_tz	lowerleg1_l_tx	lowerleg1_l_ty	lowerleg1_l_tz	toe_r_tx	toe_r_ty	toe_r_tz	toe_l_tx	toe_l_ty	toe_l_tz	ground_force_vx	ground_force_vy	ground_force_vz	ground_force_px	ground_force_py	ground_force_pz	ground_force_vx	ground_force_vy	ground_force_vz	ground_force_px	ground_force_py	ground_force_pz	ground_torque_x	ground_torque_y	ground_torque_z	ground_torque_x	ground_torque_y	ground_torque_z	ground_marker_px	ground_marker_py	ground_marker_pz	ground_marker_px	ground_marker_py	ground_marker_pz	ground_marker_px	ground_marker_py	ground_marker_pz	ground_marker_px	ground_marker_py	ground_marker_pz	ground_marker_px	ground_marker_py	ground_marker_pz	ground_marker_px	ground_marker_py	ground_marker_pz	ground_marker_px	ground_marker_py	ground_marker_pz	ground_marker_px	ground_marker_py	ground_marker_pz	ground_marker_px	ground_marker_py	ground_marker_pz	ground_marker_px	ground_marker_py	ground_marker_pz	ground_marker_px	ground_marker_py	ground_marker_pz	ground_marker_px	ground_marker_py	ground_marker_pz	ground_marker_px	ground_marker_py	ground_marker_pz	ground_marker_px	ground_marker_py	ground_marker_pz	ground_marker_px	ground_marker_py	ground_marker_pz	ground_marker_px	ground_marker_py	ground_marker_pz	ground_marker_px	ground_marker_py	ground_marker_pz	ground_marker_px	ground_marker_py	ground_marker_pz	ground_marker_px	ground_marker_py	ground_marker_pz	ground_marker_px	ground_marker_py	ground_marker_pz	ground_marker_px	ground_marker_py	ground_marker_pz	ground_marker_px	ground_marker_py	ground_marker_pz	ground_marker_px	ground_marker_py	ground_marker_pz	ground_marker_px	ground_marker_py	ground_marker_pz	ground_marker_px	ground_marker_py	ground_marker_pz	ground_marker_px	ground_marker_py	ground_marker_pz	ground_marker_px	ground_marker_py	ground_marker_pz	ground_marker_px	ground_marker_py	ground_marker_pz	ground_marker_px	ground_marker_py	ground_marker_pz	ground_marker_px	ground_marker_py	ground_marker_pz	ground_marker_px	ground_marker_py	ground_marker_pz	ground_marker_px	ground_marker_py	ground_marker_pz	ground_marker_px	ground_marker_py	ground_marker_pz	ground_marker_px	ground_marker_py	ground_marker_pz	ground_marker_px	ground_marker_py	ground_marker_pz	ground_marker_px	ground_marker_py	ground_marker_pz	ground_marker_px	ground_marker_py	ground_marker_pz
      0.54167000	     -1.96118076	      0.96502990	      0.19391219	      3.90606868	     -1.43635324	      0.33307318	     13.20681813	      0.24364301	      3.59627533	    -23.82886882	     12.63801687	     -7.89501377	     -0.93230433	      6.71917678	     -5.85518871	      8.98542348	    -10.45850185	     -3.10910728	      5.03651797	      0.00000000	      0.00000000	      0.00000000	      0.00000000	     -1.91371276	      0.99037110	      0.29249128	     -1.92192649	      0.98827448	      0.07970560	     -1.94955958	      0.96582169	      0.19384450	     -2.11918904	      0.98669830	      0.23761615	     -2.12499038	      0.98641401	      0.14963611	     -2.01583816	      0.90794457	      0.26508350	     -2.01640676	      0.90441477	      0.12618173	     -2.01612246	      0.90617967	      0.19563261	     -1.83647321	      0.50795695	      0.31914787	     -1.87458147	      0.51458056	      0.20494508	     -1.83156843	      0.63507994	      0.38889736	     -1.84532914	      0.69174476	      0.31522468	     -1.82389574	      0.61252383	      0.29463603	     -1.95250866	      0.08152908	      0.33555879	     -1.95783471	      0.07828332	      0.26730204	     -1.91452879	      0.15252614	      0.39550351	     -1.92404782	      0.21010381	      0.33205990	     -1.89386560	      0.51086931	      0.27292469	     -1.94225300	      0.09734519	      0.29257545	     -1.82567849	      0.06917284	      0.29122535	     -2.00500939	      0.46844897	      0.06181640	     -2.03281436	      0.47781040	      0.16598324	     -1.86128184	      0.59945811	      0.13250903	     -1.92795573	      0.66255645	      0.08614136	     -1.94352020	      0.57717857	      0.08564968	     -2.12779387	      0.06120239	      0.08766112	     -2.12326133	      0.06865783	      0.15695827	     -2.00172578	      0.14808098	      0.13919009	     -2.05693634	      0.21000120	      0.12205081	     -2.04912544	      0.49215372	      0.12959830	     -2.12014178	      0.08144047	      0.12860134	     -1.99675001	      0.03516839	      0.12464687	     -1.97215097	      1.37720092	      0.24942375	     -1.98020471	      1.36998390	      0.09415172	     -2.07378437	      1.44822230	      0.16279821	     -1.98864382	      1.37507818	      0.16839495	     -1.95670805	      1.17264927	      0.16947540	     -2.02423300	      0.90164600	      0.19683000	     -2.02293300	      0.89303200	      0.24566600	     -2.02327200	      0.89080900	      0.13912000	     -1.89640600	      0.49237200	      0.25967000	     -2.04969200	      0.48008000	      0.13139600	     -1.94329000	      0.07710200	      0.27129700	     -2.12341200	      0.06827000	      0.15685700	     -1.94382700	      0.98828300	      0.19013100	     -1.94349800	      0.99044400	      0.29373300	     -1.94415600	      0.98612100	      0.08652900	     -2.14391400	      1.01545200	      0.23648400	     -2.14606200	      1.01681000	      0.15184600	     -1.89270400	      0.49561400	      0.31896600	     -2.04270400	      0.48074100	      0.07231200	     -1.90611600	      0.49661500	      0.20462600	     -2.06630500	      0.48138400	      0.17704200	     -1.95034800	      0.07894300	      0.30859000	     -2.12594000	      0.06628900	      0.11748700	     -1.94569300	      0.08531100	      0.23816200	     -2.11682400	      0.07749000	      0.18589000	     -2.07027100	      1.47064800	      0.16276500	     -1.96916200	      1.40967300	      0.23949600	     -1.97816100	      1.39930900	      0.09300400	     -1.98623800	      1.40522300	      0.16299100	     -1.94324300	      1.20486300	      0.16775100	     -1.89633600	      0.59814300	      0.40391400	     -1.89672200	      0.59625900	      0.12709700	     -1.88964100	      0.66272200	      0.33287500	     -1.96480600	      0.66203500	      0.08409100	     -1.86986600	      0.58397100	      0.31100300	     -1.98180200	      0.57661100	      0.08731200	     -1.93404100	      0.15829400	      0.37456500	     -2.00318400	      0.16472700	      0.15637500	     -1.94441900	      0.21514800	      0.31138100	     -2.06139700	      0.22282100	      0.14020100	     -1.82645700	      0.06545300	      0.26610600	     -1.99510200	      0.04104000	      0.14982000	      0.00000000	      0.00000000	      0.00000000	     -1.65949500	      0.00000000	      0.25520789	      8.58868278	    567.53551283	     14.75669904	     -2.04607178	      0.00000000	      0.15050842	      0.00000000	      0.00000000	      0.00000000	      0.00000000	     -1.14878308	      0.00000000	     -2.02423286	      0.90164632	      0.19682971	     -2.02293301	      0.89303166	      0.24566641	     -2.02327156	      0.89080852	      0.13912018	     -1.89640582	      0.49237207	      0.25967011	     -2.04969192	      0.48007950	      0.13139620	     -1.94328964	      0.07710197	      0.27129710	     -2.12341213	      0.06827043	      0.15685661	     -1.94382668	      0.98828268	      0.19013086	     -1.94349754	      0.99044436	      0.29373303	     -1.94415569	      0.98612094	      0.08652870	     -2.14391375	      1.01545227	      0.23648354	     -2.14606237	      1.01681018	      0.15184592	     -1.89270401	      0.49561357	      0.31896630	     -2.04270387	      0.48074111	      0.07231169	     -1.90611565	      0.49661490	      0.20462619	     -2.06630468	      0.48138374	      0.17704183	     -1.95034826	      0.07894304	      0.30859032	     -2.12594032	      0.06628899	      0.11748745	     -1.94569337	      0.08531149	      0.23816165	     -2.11682439	      0.07749017	      0.18588977	     -2.07027125	      1.47064817	      0.16276546	     -1.96916234	      1.40967333	      0.23949581	     -1.97816122	      1.39930928	      0.09300432	     -1.98623753	      1.40522337	      0.16299145	     -1.94324267	      1.20486331	      0.16775088	     -1.89633608	      0.59814262	      0.40391409	     -1.89672220	      0.59625912	      0.12709697	     -1.88964128	      0.66272163	      0.33287475	     -1.96480644	      0.66203535	      0.08409123	     -1.86986578	      0.58397102	      0.31100309	     -1.98180234	      0.57661074	      0.08731236	     -1.93404090	      0.15829431	      0.37456536	     -2.00318384	      0.16472681	      0.15637478	     -1.94441903	      0.21514842	      0.31138074	     -2.06139731	      0.22282092	      0.14020148	     -1.82645738	      0.06545313	      0.26610613	     -1.99510229	      0.04103974	      0.14981967
      0.55000000	     -1.95603891	      0.96449103	      0.19383193	      3.90809826	     -1.56335411	      0.51962800	     13.66669505	      0.38161499	      3.31637072	    -22.83606282	     12.07070363	     -8.17316068	     -1.07970391	      7.01878305	     -5.95700044	      9.30988421	    -10.51716976	     -2.91545406	      4.89265637	      0.00000000	      0.00000000	      0.00000000	      0.00000000	     -1.90826474	      0.99006946	      0.29220162	     -1.91713737	      0.98745555	      0.07944813	     -1.94441796	      0.96528202	      0.19372633	     -2.11391011	      0.98627416	      0.23797205	     -2.11998385	      0.98577612	      0.15001135	     -2.01047830	      0.90758196	      0.26531082	     -2.01147715	      0.90371423	      0.12642048	     -2.01097772	      0.90564809	      0.19586565	     -1.82794087	      0.50897393	      0.31894444	     -1.86602917	      0.51544766	      0.20472640	     -1.82410112	      0.63603659	      0.38887040	     -1.83827006	      0.69268990	      0.31526628	     -1.81618816	      0.61367190	      0.29458333	     -1.93330304	      0.08072119	      0.33426576	     -1.93855055	      0.07751158	      0.26600122	     -1.89712732	      0.15250723	      0.39438651	     -1.90810527	      0.20998328	      0.33108660	     -1.88554845	      0.51156250	      0.27270000	     -1.92345424	      0.09689869	      0.29132179	     -1.80645897	      0.07054104	      0.28974003	     -2.00204355	      0.46768032	      0.06219891	     -2.03005602	      0.47720575	      0.16629527	     -1.85785299	      0.59800864	      0.13320642	     -1.92410622	      0.66141756	      0.08665981	     -1.94008448	      0.57611625	      0.08615293	     -2.12761314	      0.06118491	      0.08776333	     -2.12320211	      0.06861538	      0.15707100	     -2.00109940	      0.14722995	      0.13959780	     -2.05585593	      0.20951343	      0.12231880	     -2.04619376	      0.49160856	      0.12986882	     -2.11992802	      0.08137492	      0.12872109	     -1.99657906	      0.03497360	      0.12494937	     -1.96668961	      1.37655945	      0.24967210	     -1.97477991	      1.36944766	      0.09439711	     -2.06827716	      1.44772519	      0.16311128	     -1.98320009	      1.37450247	      0.16864520	     -1.95144271	      1.17204482	      0.16959151	     -2.01897900	      0.90112200	      0.19680500	     -2.01781800	      0.89259900	      0.24613600	     -2.01848200	      0.89018100	      0.13959600	     -1.88799500	      0.49292600	      0.25942400	     -2.04683500	      0.47966900	      0.13167300	     -1.92421800	      0.07652900	      0.27013700	     -2.12332200	      0.06836200	      0.15693800	     -1.93889000	      0.98775500	      0.19018400	     -1.93824400	      0.99010700	      0.29381400	     -1.93953600	      0.98540200	      0.08655500	     -2.13870500	      1.01487900	      0.23645900	     -2.14088100	      1.01621300	      0.15183600	     -1.88436800	      0.49607500	      0.31873000	     -2.03969900	      0.48031600	      0.07260600	     -1.89844900	      0.49692600	      0.20455000	     -2.06323400	      0.48109800	      0.17730300	     -1.93135900	      0.07810900	      0.30742600	     -2.12580300	      0.06640500	      0.11756500	     -1.92682500	      0.08469000	      0.23703900	     -2.11669100	      0.07751900	      0.18599600	     -2.06478000	      1.47017100	      0.16307300	     -1.96364500	      1.40887600	      0.23999600	     -1.97269500	      1.39863000	      0.09314600	     -1.98074500	      1.40451200	      0.16331400	     -1.93812500	      1.20406700	      0.16789900	     -1.88896500	      0.59850400	      0.40381000	     -1.89311400	      0.59522700	      0.12778100	     -1.88279800	      0.66310600	      0.33276800	     -1.96082400	      0.66136600	      0.08464700	     -1.86257600	      0.58453200	      0.31087400	     -1.97815500	      0.57604300	      0.08779700	     -1.91716500	      0.15766000	      0.37357600	     -2.00236000	      0.16397100	      0.15667000	     -1.92877900	      0.21433700	      0.31047000	     -2.06005700	      0.22237900	      0.14040300	     -1.80697600	      0.06675000	      0.26511500	     -1.99498200	      0.04098400	      0.14982800	      0.00000000	      0.00000000	      0.00000000	     -1.65907617	      0.00000000	      0.25550815	      8.55978511	    568.31532274	     14.76293931	     -2.04197449	      0.00000000	      0.15063712	      0.00000000	      0.00000000	      0.00000000	      0.00000000	     -1.13411084	      0.00000000	     -2.01897907	      0.90112233	      0.19680530	     -2.01781821	      0.89259934	      0.24613623	     -2.01848221	      0.89018089	      0.13959578	     -1.88799477	      0.49292555	      0.25942400	     -2.04683471	      0.47966880	      0.13167328	     -1.92421830	      0.07652857	      0.27013689	     -2.12332249	      0.06836203	      0.15693817	     -1.93888998	      0.98775458	      0.19018449	     -1.93824399	      0.99010694	      0.29381412	     -1.93953598	      0.98540223	      0.08655485	     -2.13870525	      1.01487863	      0.23645948	     -2.14088058	      1.01621270	      0.15183605	     -1.88436842	      0.49607518	      0.31872982	     -2.03969884	      0.48031589	      0.07260626	     -1.89844859	      0.49692574	      0.20454970	     -2.06323385	      0.48109815	      0.17730346	     -1.93135917	      0.07810915	      0.30742642	     -2.12580276	      0.06640473	      0.11756475	     -1.92682469	      0.08469001	      0.23703915	     -2.11669111	      0.07751861	      0.18599638	     -2.06478047	      1.47017133	      0.16307276	     -1.96364510	      1.40887630	      0.23999609	     -1.97269535	      1.39862990	      0.09314628	     -1.98074484	      1.40451157	      0.16331409	     -1.93812501	      1.20406711	      0.16789936	     -1.88896537	      0.59850377	      0.40381032	     -1.89311445	      0.59522730	      0.12778129	     -1.88279808	      0.66310573	      0.33276814	     -1.96082413	      0.66136611	      0.08464731	     -1.86257577	      0.58453178	      0.31087407	     -1.97815502	      0.57604319	      0.08779740	     -1.91716492	      0.15765975	      0.37357643	     -2.00236034	      0.16397107	      0.15667002	     -1.92877853	      0.21433739	      0.31047019	     -2.06005669	      0.22237875	      0.14040303	     -1.80697584	      0.06674992	      0.26511455	     -1.99498200	      0.04098354	      0.14982808
      0.55833000	     -1.95081400	      0.96395167	      0.19378617	      3.92859630	     -1.67832538	      0.69172303	     14.08107539	      0.50559035	      3.05449420	    -21.84143674	     11.42782187	     -8.48616326	     -1.21736540	      7.29658007	     -6.04076126	      9.63791043	    -10.57695978	     -2.74433705	      4.87914381	      0.00000000	      0.00000000	      0.00000000	      0.00000000	     -1.90276595	      0.98976008	      0.29196221	     -1.91224587	      0.98667413	      0.07924123	     -1.93919362	      0.96474557	      0.19364560	     -2.10856441	      0.98578962	      0.23832922	     -2.11488938	      0.98509577	      0.15038755	     -2.00503318	      0.90718585	      0.26554580	     -2.00642790	      0.90301127	      0.12666774	     -2.00573054	      0.90509856	      0.19610677	     -1.81952714	      0.50989592	      0.31877224	     -1.85759252	      0.51623223	      0.20453885	     -1.81668929	      0.63689194	      0.38886688	     -1.83123968	      0.69353342	      0.31532810	     -1.80854952	      0.61471148	      0.29455560	     -1.91438011	      0.08013398	      0.33303036	     -1.91955133	      0.07696013	      0.26475833	     -1.87999510	      0.15265122	      0.39332418	     -1.89240279	      0.20998968	      0.33016374	     -1.87735213	      0.51217672	      0.27250701	     -1.90493961	      0.09665511	      0.29012553	     -1.78759571	      0.07191291	      0.28829365	     -1.99909427	      0.46691921	      0.06256702	     -2.02729851	      0.47661378	      0.16659595	     -1.85439851	      0.59651918	      0.13387927	     -1.92021576	      0.66025780	      0.08716474	     -1.93663250	      0.57503990	      0.08664013	     -2.12742812	      0.06120388	      0.08785709	     -2.12313067	      0.06860982	      0.15717452	     -2.00047045	      0.14641456	      0.13998367	     -2.05477350	      0.20905734	      0.12257291	     -2.04326504	      0.49108298	      0.13013052	     -2.11970584	      0.08134549	      0.12883169	     -1.99639682	      0.03482493	      0.12522670	     -1.96108784	      1.37589289	      0.24982014	     -1.96953277	      1.36889975	      0.09455865	     -2.06281511	      1.44719912	      0.16353949	     -1.97778207	      1.37390724	      0.16882912	     -1.94617814	      1.17142468	      0.16955774	     -2.01359600	      0.90064900	      0.19680100	     -2.01260200	      0.89211500	      0.24659400	     -2.01356400	      0.88952100	      0.14006000	     -1.87970200	      0.49342400	      0.25919900	     -2.04397400	      0.47925100	      0.13194500	     -1.90543200	      0.07619600	      0.26905200	     -2.12322300	      0.06845000	      0.15698800	     -1.93386800	      0.98720900	      0.19026500	     -1.93293200	      0.98973300	      0.29391700	     -1.93480400	      0.98468400	      0.08661300	     -2.13347800	      1.01422700	      0.23649800	     -2.13569000	      1.01555000	      0.15187000	     -1.87614900	      0.49648300	      0.31851400	     -2.03669700	      0.47988000	      0.07289500	     -1.89083500	      0.49707900	      0.20455900	     -2.06001400	      0.48098200	      0.17792200	     -1.91266000	      0.07752200	      0.30633500	     -2.12566400	      0.06652100	      0.11761100	     -1.90815800	      0.08433400	      0.23594600	     -2.11661900	      0.07755900	      0.18607600	     -2.05926400	      1.46963800	      0.16345300	     -1.95817700	      1.40793600	      0.24045900	     -1.96730800	      1.39794400	      0.09328600	     -1.97531600	      1.40373400	      0.16362000	     -1.93317700	      1.20318000	      0.16784800	     -1.88165800	      0.59880500	      0.40371300	     -1.88945200	      0.59419500	      0.12844400	     -1.87608000	      0.66341400	      0.33267800	     -1.95673600	      0.66069700	      0.08511700	     -1.85536300	      0.58497700	      0.31078000	     -1.97442100	      0.57541500	      0.08838700	     -1.90056700	      0.15721300	      0.37264800	     -2.00152100	      0.16321600	      0.15691700	     -1.91337400	      0.21368000	      0.30965800	     -2.05884800	      0.22200100	      0.14053800	     -1.78777800	      0.06808600	      0.26425000	     -1.99488100	      0.04094000	      0.14978900	      0.00000000	      0.00000000	      0.00000000	     -1.65854822	      0.00000000	      0.25579416	      8.34123988	    569.29689359	     14.87785309	     -2.03771143	      0.00000000	      0.15074142	      0.00000000	      0.00000000	      0.00000000	      0.00000000	     -1.11042419	      0.00000000	     -2.01359606	      0.90064907	      0.19680123	     -2.01260185	      0.89211547	      0.24659438	     -2.01356387	      0.88952100	      0.14006037	     -1.87970173	      0.49342358	      0.25919908	     -2.04397440	      0.47925121	      0.13194525	     -1.90543163	      0.07619604	      0.26905218	     -2.12322307	      0.06845041	      0.15698840	     -1.93386817	      0.98720866	      0.19026464	     -1.93293214	      0.98973292	      0.29391667	     -1.93480408	      0.98468441	      0.08661262	     -2.13347769	      1.01422727	      0.23649772	     -2.13569045	      1.01555049	      0.15186967	     -1.87614870	      0.49648324	      0.31851405	     -2.03669739	      0.47987983	      0.07289527	     -1.89083493	      0.49707887	      0.20455937	     -2.06001353	      0.48098198	      0.17792232	     -1.91265953	      0.07752223	      0.30633488	     -2.12566400	      0.06652081	      0.11761115	     -1.90815818	      0.08433445	      0.23594557	     -2.11661935	      0.07755909	      0.18607588	     -2.05926418	      1.46963811	      0.16345276	     -1.95817697	      1.40793550	      0.24045919	     -1.96730769	      1.39794362	      0.09328590	     -1.97531593	      1.40373385	      0.16361997	     -1.93317688	      1.20318007	      0.16784823	     -1.88165820	      0.59880507	      0.40371266	     -1.88945186	      0.59419537	      0.12844400	     -1.87608039	      0.66341370	      0.33267847	     -1.95673597	      0.66069674	      0.08511712	     -1.85536277	      0.58497715	      0.31078002	     -1.97442091	      0.57541549	      0.08838676	     -1.90056682	      0.15721320	      0.37264821	     -2.00152087	      0.16321582	      0.15691730	     -1.91337407	      0.21368000	      0.30965832	     -2.05884767	      0.22200102	      0.14053813	     -1.78777850	      0.06808603	      0.26424989	     -1.99488127	      0.04093977	      0.14978926
